<?xml version="1.0" standalone="no"?>
<!DOCTYPE svg PUBLIC "-//W3C//DTD SVG 20010904//EN"
 "http://www.w3.org/TR/2001/REC-SVG-20010904/DTD/svg10.dtd">
<svg version="1.0" xmlns="http://www.w3.org/2000/svg"
 width="512.000000pt" height="512.000000pt" viewBox="0 0 512.000000 512.000000"
 preserveAspectRatio="xMidYMid meet">
<metadata>
Created by potrace 1.14, written by Peter Selinger 2001-2017
</metadata>
<g transform="translate(0.000000,512.000000) scale(0.100000,-0.100000)"
fill="#000000" stroke="none">
<path d="M2205 3840 l-1200 -1200 -438 0 -438 0 -24 -25 -25 -24 0 -1071 0
-1071 25 -24 24 -25 598 0 597 0 161 -160 c144 -143 165 -160 195 -160 30 0
51 17 195 160 l161 160 1477 0 1478 0 24 25 25 24 0 1071 0 1071 -25 24 -24
25 -358 0 -358 0 383 383 c355 356 382 385 382 417 0 33 -47 82 -783 817 -737
738 -784 783 -817 783 -33 0 -101 -66 -1235 -1200z m1940 300 l700 -700 -400
-400 -400 -400 -302 0 -302 0 -6 38 c-36 211 -124 382 -266 518 -81 77 -140
116 -242 164 -131 61 -200 75 -367 75 -167 0 -236 -14 -368 -76 -111 -51 -194
-112 -278 -202 -113 -121 -189 -270 -220 -429 l-17 -88 -221 0 -221 0 1100
1100 c605 605 1102 1100 1105 1100 3 0 320 -315 705 -700z m-1397 -891 c196
-49 370 -196 458 -386 30 -63 63 -174 64 -210 0 -10 -29 -13 -110 -13 l-111 0
-36 36 c-104 104 -281 121 -405 38 l-52 -35 -108 108 c-107 106 -108 108 -89
127 30 29 115 33 166 7 l39 -21 53 52 c29 29 53 57 53 63 0 16 -66 57 -123 76
-96 34 -204 18 -286 -42 l-43 -31 -29 28 -30 28 -56 -57 -57 -56 28 -30 28
-29 -31 -43 c-35 -48 -61 -124 -61 -181 l0 -38 -80 0 c-57 0 -80 4 -80 13 1
40 36 153 70 222 151 309 485 460 828 374z m-453 -539 l69 -70 -92 0 -92 0 0
38 c0 30 30 102 43 102 1 0 34 -31 72 -70z m2585 -1190 l0 -960 -2320 0 -2320
0 0 960 0 960 2320 0 2320 0 0 -960z m-3138 -1182 l-62 -63 -62 63 -63 62 125
0 125 0 -63 -62z"/>
<path d="M3075 4210 l-350 -350 58 -57 57 -58 310 310 310 310 452 -453 453
-452 -310 -310 -310 -310 58 -57 57 -58 350 350 c326 326 350 353 350 385 0
33 -34 69 -533 568 -498 498 -534 532 -567 532 -32 0 -59 -25 -385 -350z"/>
<path d="M3230 3915 l-54 -55 59 -60 59 -60 53 52 c29 29 53 57 53 63 0 10
-101 115 -111 115 -2 0 -29 -25 -59 -55z"/>
<path d="M3010 3685 l-55 -55 58 -58 57 -57 57 57 58 58 -55 55 c-30 30 -57
55 -60 55 -3 0 -30 -25 -60 -55z"/>
<path d="M3792 3347 l-52 -53 60 -59 60 -60 57 58 58 57 -55 55 c-30 30 -59
55 -65 55 -6 0 -34 -24 -63 -53z"/>
<path d="M3571 3118 l-55 -59 57 -57 57 -57 55 55 c30 30 55 59 55 65 0 11
-102 116 -110 114 -3 -1 -30 -28 -59 -61z"/>
<path d="M2390 2385 c-526 -106 -837 -653 -661 -1159 152 -435 634 -681 1076
-551 361 106 613 423 632 797 18 346 -155 655 -458 822 -172 94 -398 130 -589
91z m347 -171 c32 -8 94 -32 138 -53 149 -72 250 -174 325 -326 55 -111 73
-189 73 -315 0 -126 -18 -204 -73 -315 -74 -151 -174 -251 -325 -325 -111 -55
-189 -73 -315 -73 -125 0 -202 17 -315 72 -190 92 -327 262 -382 471 -22 87
-22 253 0 340 88 338 394 564 734 544 46 -3 109 -12 140 -20z"/>
<path d="M2480 2121 l0 -38 -49 -6 c-95 -11 -185 -76 -237 -169 -26 -48 -29
-62 -29 -148 0 -87 3 -100 30 -149 16 -29 49 -70 73 -92 47 -41 134 -79 182
-79 l30 0 0 -160 0 -160 -27 6 c-66 16 -112 62 -127 127 -6 27 -7 27 -88 27
l-81 0 6 -50 c8 -66 50 -142 105 -191 47 -41 134 -79 182 -79 28 0 30 -2 30
-40 l0 -40 80 0 80 0 0 40 c0 38 2 40 30 40 100 0 229 97 268 203 72 192 -53
411 -248 434 l-50 6 0 159 0 158 28 -6 c64 -15 110 -61 126 -126 6 -28 7 -28
86 -28 l80 0 0 30 c0 48 -38 135 -79 182 -49 55 -125 97 -191 105 l-50 6 0 38
0 39 -80 0 -80 0 0 -39z m0 -361 l0 -160 -27 6 c-121 29 -169 168 -90 259 18
22 82 53 110 55 4 0 7 -72 7 -160z m245 -351 c42 -25 69 -75 69 -129 0 -76
-50 -136 -126 -154 l-28 -6 0 160 0 160 28 -6 c15 -4 41 -15 57 -25z"/>
<path d="M425 2295 l-25 -24 0 -751 0 -751 25 -24 24 -25 496 0 495 0 0 80 0
80 -440 0 -440 0 0 640 0 640 440 0 440 0 0 80 0 80 -495 0 -496 0 -24 -25z"/>
<path d="M3680 2240 l0 -80 440 0 440 0 0 -640 0 -640 -440 0 -440 0 0 -80 0
-80 495 0 496 0 24 25 25 24 0 751 0 751 -25 24 -24 25 -496 0 -495 0 0 -80z"/>
<path d="M960 1920 l0 -80 80 0 80 0 0 80 0 80 -80 0 -80 0 0 -80z"/>
<path d="M1280 1920 l0 -80 80 0 80 0 0 80 0 80 -80 0 -80 0 0 -80z"/>
<path d="M3680 1920 l0 -80 80 0 80 0 0 80 0 80 -80 0 -80 0 0 -80z"/>
<path d="M4000 1920 l0 -80 80 0 80 0 0 80 0 80 -80 0 -80 0 0 -80z"/>
<path d="M960 1120 l0 -80 80 0 80 0 0 80 0 80 -80 0 -80 0 0 -80z"/>
<path d="M1280 1120 l0 -80 80 0 80 0 0 80 0 80 -80 0 -80 0 0 -80z"/>
<path d="M3680 1120 l0 -80 80 0 80 0 0 80 0 80 -80 0 -80 0 0 -80z"/>
<path d="M4000 1120 l0 -80 80 0 80 0 0 80 0 80 -80 0 -80 0 0 -80z"/>
</g>
</svg>
